<?xml version="1.0" standalone="no"?>
<!DOCTYPE svg PUBLIC "-//W3C//DTD SVG 20010904//EN"
 "http://www.w3.org/TR/2001/REC-SVG-20010904/DTD/svg10.dtd">
<svg version="1.0" xmlns="http://www.w3.org/2000/svg"
 width="278.000000pt" height="95.000000pt" viewBox="0 0 278.000000 95.000000"
 preserveAspectRatio="xMidYMid meet">

<g transform="translate(0.000000,95.000000) scale(0.100000,-0.100000)"
fill="#000000" stroke="none">
<path d="M285 806 l-190 -112 0 -229 0 -229 158 -93 c86 -50 175 -102 196
-114 l39 -21 158 92 c88 51 176 103 197 116 l37 24 0 225 0 225 -37 24 c-76
49 -351 206 -360 205 -4 0 -93 -51 -198 -113z m394 -32 l171 -99 0 -42 c0 -37
-4 -44 -29 -58 l-30 -15 -3 42 -3 42 -149 88 -149 88 -151 -89 -151 -89 -3
-41 c-3 -44 -8 -48 -34 -27 -13 9 -18 27 -18 59 l0 45 173 101 c94 55 180 99
189 97 9 -2 94 -48 187 -102z m-54 -72 c120 -72 130 -80 133 -110 2 -18 1 -32
-2 -32 -3 0 -59 32 -125 70 -66 39 -127 73 -135 76 -14 6 -64 -21 -243 -128
l-33 -20 0 34 c0 33 4 36 132 111 73 42 135 77 138 77 3 -1 64 -36 135 -78z
m9 -110 l109 -64 -64 -37 c-35 -21 -93 -54 -129 -73 l-65 -37 -128 73 -128 73
128 76 c108 63 131 74 148 64 11 -5 69 -39 129 -75z m-303 -161 l156 -92 178
106 c97 58 179 105 181 105 2 0 4 -38 4 -85 0 -47 -4 -85 -8 -85 -5 0 -17 7
-28 15 -10 8 -27 15 -37 15 -9 0 -78 -36 -154 -80 l-136 -80 -31 19 c-140 84
-246 141 -260 141 -9 0 -28 -7 -41 -16 l-25 -16 0 87 0 87 23 -14 c12 -8 92
-56 178 -107z m5 -233 l151 -88 149 88 149 88 3 42 c2 23 5 42 8 42 3 0 16 -7
29 -16 20 -13 25 -25 25 -58 l0 -41 -168 -97 c-92 -53 -175 -100 -184 -103
-10 -4 -79 30 -192 95 l-176 102 0 48 c0 39 4 49 23 57 20 10 22 7 27 -31 l5
-41 151 -87z m422 140 c-3 -30 -13 -38 -133 -110 -71 -42 -137 -75 -145 -72
-8 3 -70 37 -137 77 -111 64 -123 74 -123 99 0 15 3 28 6 28 4 0 62 -31 129
-70 67 -38 126 -70 131 -70 5 0 65 34 134 74 69 41 129 75 133 75 5 1 7 -13 5
-31z"/>
<path d="M1159 741 c-63 -63 -22 -181 63 -181 38 0 75 21 64 38 -4 7 -15 7
-35 -1 -84 -32 -137 88 -58 133 21 12 32 12 57 3 36 -14 53 3 25 24 -33 23
-83 16 -116 -16z"/>
<path d="M1360 750 c-45 -45 -13 -130 50 -130 41 0 70 31 70 75 0 44 -29 75
-70 75 -17 0 -39 -9 -50 -20z m84 -26 c9 -8 16 -22 16 -29 0 -20 -28 -45 -50
-45 -22 0 -50 25 -50 45 0 20 28 45 50 45 10 0 26 -7 34 -16z"/>
<path d="M1540 665 c0 -116 17 -146 22 -37 l3 67 35 -67 c19 -38 40 -68 48
-68 7 0 28 30 45 68 l32 67 3 -67 c2 -52 6 -68 17 -68 12 0 15 20 15 105 0 93
-2 105 -17 105 -12 0 -27 -22 -47 -65 -49 -109 -48 -109 -91 -16 -53 112 -65
108 -65 -24z"/>
<path d="M1820 747 c0 -12 7 -33 16 -45 14 -20 14 -22 0 -22 -13 0 -16 -12
-16 -60 0 -33 4 -60 10 -60 6 0 10 20 10 45 0 45 0 45 35 45 54 0 92 49 67 86
-13 19 -50 34 -86 34 -31 0 -36 -3 -36 -23z m88 -19 c17 -17 15 -35 -5 -42
-18 -7 -43 17 -43 41 0 16 32 17 48 1z"/>
<path d="M1990 700 c0 -102 23 -140 85 -140 62 0 85 38 85 140 l0 70 -85 0
-85 0 0 -70z m140 -19 c0 -66 -15 -91 -55 -91 -40 0 -55 25 -55 91 l0 59 55 0
55 0 0 -59z"/>
<path d="M2200 755 c0 -8 9 -15 20 -15 19 0 20 -7 20 -90 0 -73 3 -90 15 -90
12 0 15 17 15 90 0 83 1 90 20 90 11 0 20 7 20 15 0 12 -13 15 -55 15 -42 0
-55 -3 -55 -15z"/>
<path d="M2350 665 l0 -105 65 0 c51 0 65 3 65 15 0 11 -12 15 -50 15 -49 0
-50 1 -50 30 0 29 2 30 45 30 33 0 45 4 45 15 0 11 -12 15 -45 15 -43 0 -45 1
-45 30 0 29 1 30 50 30 38 0 50 4 50 15 0 12 -14 15 -65 15 l-65 0 0 -105z"/>
<path d="M2530 752 c0 -10 7 -27 15 -38 19 -25 19 -34 0 -34 -12 0 -15 -13
-15 -60 0 -47 3 -60 15 -60 11 0 15 12 15 45 0 58 17 58 53 0 16 -25 35 -45
43 -45 19 0 18 5 -11 48 -25 36 -25 36 -5 57 47 50 11 105 -67 105 -35 0 -43
-3 -43 -18z m96 -26 c18 -14 18 -15 1 -33 -18 -17 -19 -17 -38 6 -10 13 -19
27 -19 32 0 14 34 11 56 -5z"/>
<path d="M1340 575 c0 -12 14 -15 65 -15 51 0 65 3 65 15 0 12 -14 15 -65 15
-51 0 -65 -3 -65 -15z"/>
<path d="M1226 450 c-114 -36 -133 -220 -27 -275 40 -20 106 -19 142 2 26 15
27 19 13 34 -14 15 -18 15 -45 2 -52 -26 -121 6 -135 62 -10 41 5 92 33 115
28 22 82 26 115 9 16 -8 24 -8 35 4 14 13 13 17 -8 30 -32 20 -87 28 -123 17z"/>
<path d="M1430 305 l0 -145 95 0 c95 0 95 0 95 25 0 24 -2 25 -75 25 l-75 0 0
35 0 35 60 0 c57 0 60 1 60 25 0 24 -3 25 -60 25 l-60 0 0 40 0 40 75 0 c68 0
75 2 75 20 0 19 -7 20 -95 20 l-95 0 0 -145z"/>
<path d="M1680 305 c0 -138 1 -145 20 -145 18 0 20 8 22 104 l3 105 73 -105
c50 -71 79 -104 93 -104 18 0 19 8 19 145 0 137 -1 145 -20 145 -18 0 -20 -8
-22 -102 l-3 -103 -73 103 c-50 70 -79 102 -92 102 -19 0 -20 -8 -20 -145z"/>
<path d="M1960 430 c0 -16 7 -20 30 -20 l30 0 0 -125 c0 -118 1 -125 20 -125
19 0 20 7 20 125 l0 125 30 0 c23 0 30 4 30 20 0 18 -7 20 -80 20 -73 0 -80
-2 -80 -20z"/>
<path d="M2170 305 l0 -145 95 0 c95 0 95 0 95 25 0 24 -2 25 -75 25 l-75 0 0
35 0 34 63 3 c56 3 62 5 65 26 3 21 0 22 -63 22 l-66 0 3 38 3 37 73 3 c64 3
72 5 72 22 0 18 -7 20 -95 20 l-95 0 0 -145z"/>
<path d="M2420 428 c0 -13 9 -36 20 -53 25 -38 25 -45 0 -45 -18 0 -20 -7 -20
-85 0 -78 2 -85 20 -85 18 0 20 7 20 60 0 53 2 60 20 60 14 0 32 -19 57 -60
28 -44 44 -60 60 -60 13 0 23 2 23 5 0 2 -16 30 -36 60 l-35 56 30 28 c30 28
38 60 25 96 -11 27 -60 45 -124 45 -56 0 -60 -2 -60 -22z m130 -36 c23 -19 20
-46 -8 -57 -18 -7 -62 38 -62 63 0 18 44 15 70 -6z"/>
</g>
</svg>
